<svg xmlns="http://www.w3.org/2000/svg" fill="none" viewBox="0 0 65 65">
  <g opacity=".02">
    <path fill="#009093" d="M0 0h65v65H0z"/>
    <path d="M46.8 31.2c0-.514-.168-.988-.504-1.379l-11.14-13.604c-.369-.452-.722-.617-1.125-.617-.823 0-1.462.74-1.462 1.77 0 .494.135.967.403 1.296l3.764 4.693 5.645 6.318-4.049-.309H17.078c-.873 0-1.478.762-1.478 1.832s.605 1.832 1.478 1.832h21.254l4.066-.309-5.662 6.318-3.764 4.693c-.268.308-.403.802-.403 1.296 0 1.03.639 1.77 1.462 1.77.403 0 .756-.185 1.092-.576l11.173-13.645c.336-.391.504-.864.504-1.379z" fill="#fff"/>
  </g>
</svg>
