<svg xmlns="http://www.w3.org/2000/svg" fill="none" viewBox="0 0 59 59">
  <circle opacity=".78" cx="29.5" cy="29.5" r="29.5" fill="#D1B640" fill-opacity=".28"/>
  <path fill-rule="evenodd" clip-rule="evenodd" d="M24.604 25.546a.778.778 0 011.09 0l2.844 2.777V15.76c0-.396.33-.76.76-.76.397 0 .76.33.76.76v12.563l2.777-2.777a.778.778 0 011.091 0 .778.778 0 010 1.09l-4.1 4.1a.775.775 0 01-.561.232.775.775 0 01-.562-.232l-4.1-4.1a.778.778 0 010-1.09zm16.86 6.314c.032.132.032.231.032.33v.166l-1.554 9.686v.1a.117.117 0 01-.016.05c-.008.016-.017.032-.017.049 0 .016-.008.025-.016.033s-.017.017-.017.033c0 .017-.008.025-.016.033s-.017.017-.017.033c0 .033-.033.066-.033.066l-.099.1c-.016 0-.025.008-.033.016s-.016.016-.033.016-.025.009-.033.017c-.008.008-.017.016-.033.016-.017 0-.025.009-.033.017-.008.008-.017.016-.033.016-.017 0-.025.009-.033.017-.009.008-.017.016-.033.016-.033.033-.067.033-.1.033H19.15c-.017 0-.033-.008-.05-.016a.117.117 0 00-.05-.017c-.016 0-.024-.008-.033-.016-.008-.008-.016-.017-.033-.017-.016 0-.025-.008-.033-.016s-.016-.017-.033-.017c-.016 0-.025-.008-.033-.016s-.017-.017-.033-.017c-.014 0-.022 0-.03-.002-.01-.004-.017-.012-.036-.03l-.033-.034a.182.182 0 00-.036-.027c-.018-.01-.03-.018-.03-.039 0 0-.033 0-.033-.033 0 0-.033-.033-.033-.066-.033-.033-.033-.033-.033-.066-.033-.033-.033-.066-.033-.1v-.098L17 32.257v-.297s.033-.033.033-.066c.019-.019.027-.027.03-.037.003-.007.003-.015.003-.029v-.033l3.769-10.05a.778.778 0 01.76-.628h4.133c.396 0 .76.33.76.76 0 .397-.33.76-.76.76h-3.472l-3.273 8.728h6.05c.397 0 .76.33.76.76a3.435 3.435 0 003.439 3.438 3.457 3.457 0 003.438-3.438c0-.396.363-.76.76-.76h6.215l-3.273-8.86h-3.504a.769.769 0 01-.76-.76c0-.397.33-.76.76-.76h3.934a.8.8 0 01.827.495l3.834 10.38zm-7.273 1.025a4.982 4.982 0 01-4.926 4.231c-2.513 0-4.562-1.818-4.96-4.231h-5.619l1.322 8.265h18.513l1.322-8.265H34.19z" fill="#0C1722"/>
</svg>
